<?xml version="1.0" encoding="UTF-8" standalone="no"?>
<!DOCTYPE svg PUBLIC "-//W3C//DTD SVG 1.1//EN" "http://www.w3.org/Graphics/SVG/1.1/DTD/svg11.dtd">
<!-- Created with Vectornator (http://vectornator.io/) -->
<svg height="100%" stroke-miterlimit="10" style="fill-rule:nonzero;clip-rule:evenodd;stroke-linecap:round;stroke-linejoin:round;" version="1.1" viewBox="0 0 731.457 604.724" width="100%" xml:space="preserve" xmlns="http://www.w3.org/2000/svg" xmlns:vectornator="http://vectornator.io" xmlns:xlink="http://www.w3.org/1999/xlink">
<defs>
<clipPath id="TextBounds">
<rect height="290.649" width="37.8154" x="2012.18" y="811.673"/>
</clipPath>
<clipPath id="TextBounds_2">
<rect height="501.292" width="1323.2" x="88.497" y="950.595"/>
</clipPath>
</defs>
<clipPath id="ArtboardFrame">
<rect height="604.724" width="731.457" x="0" y="0"/>
</clipPath>
<g clip-path="url(#ArtboardFrame)" id="Слой-7" vectornator:layerName="Слой 7" visibility="hidden">
<path d="M4.60785 535.409C4.60785 246.487 389.335 12.2697 863.92 12.2697C1338.5 12.2697 1723.23 246.487 1723.23 535.409C1723.23 824.331 1338.5 1058.55 863.92 1058.55C389.335 1058.55 4.60785 824.331 4.60785 535.409Z" fill="#ffffff" fill-rule="nonzero" opacity="1" stroke="#000000" stroke-linecap="butt" stroke-linejoin="round" stroke-width="0"/>
</g>
<g clip-path="url(#ArtboardFrame)" id="Слой-1" vectornator:layerName="Слой 1">
<path d="M21.9942 354.986L705.11 354.986L705.11 485.628L21.9942 485.628L21.9942 354.986Z" fill="#d6360f" fill-rule="nonzero" opacity="1" stroke="#000000" stroke-linecap="butt" stroke-linejoin="round" stroke-width="0"/>
<path d="M22.2987 486.139L704.305 486.139L704.305 506.396L22.2987 506.396L22.2987 486.139Z" fill="#000000" fill-rule="nonzero" opacity="1" stroke="#000000" stroke-linecap="butt" stroke-linejoin="round" stroke-width="1"/>
<path d="M22.006 506.441L704.696 506.441L704.696 580.377L22.006 580.377L22.006 506.441Z" fill="#fddf19" fill-rule="nonzero" opacity="1" stroke="#000000" stroke-linecap="butt" stroke-linejoin="round" stroke-width="0"/>
<path d="M19.58 793.094L20.1914 793.094L20.1914 793.094L19.58 793.094L19.58 793.094Z" fill="#fddf19" fill-rule="nonzero" opacity="1" stroke="#000000" stroke-linecap="butt" stroke-linejoin="round" stroke-width="0"/>
<path d="M55.003 530.443C55.5115 527.755 56.0201 525.068 56.5287 522.381" fill="none" opacity="1" stroke="#000000" stroke-linecap="butt" stroke-linejoin="round" stroke-width="0"/>
<g fill="#000000" opacity="1" stroke="none"/>
</g>
<g id="Слой-3" vectornator:layerName="Слой 3" visibility="hidden">
<path d="M154.314 101.67C165.636 158.279 161.892 217.1 175.594 271.909C178.455 283.354 178.254 298.475 178.254 310.478C178.254 314.243 176.545 323.399 179.584 326.438C184.607 331.461 202.249 327.023 207.514 326.438C216.689 325.419 224.053 328.128 232.783 329.098C250.671 331.086 269.266 331.758 287.313 331.758C372.071 331.758 457.88 333.051 541.34 323.778C560.641 321.633 579.748 323.544 598.529 319.788C601.906 319.113 605.832 320.622 609.169 319.788C611.551 319.193 617.99 318.341 619.809 317.128C623.125 314.918 621.786 305.916 622.469 302.498C625.153 289.08 625.861 276.098 627.789 262.599C630.432 244.1 635.232 224.848 639.759 206.739C645.391 184.211 645.884 160.154 650.399 137.58C654.347 117.842 661.039 96.5639 661.039 76.4008C661.039 70.0292 663.699 64.3603 663.699 57.781C663.699 54.6461 665.029 48.4711 665.029 48.4711C665.029 48.4711 664.142 50.2444 663.699 51.131" fill="none" opacity="1" stroke="#000000" stroke-linecap="butt" stroke-linejoin="round" stroke-width="18.6006"/>
<path d="M166.284 108.32C159.296 108.32 178.455 104.604 180.914 104.33C193.349 102.949 205.661 103.893 218.154 103C237.246 101.637 256.157 97.4791 275.343 96.3505C292.968 95.3138 310.946 95.4502 328.542 93.6906C358.453 90.6995 388.08 85.9452 417.651 81.7207C427.738 80.2798 438.116 81.5157 448.241 80.3907C484.683 76.3416 521.249 72.2409 557.3 67.0909C562.93 66.2865 568.981 68.0256 574.59 67.0909C595.048 63.6811 615.885 61.4219 635.769 56.451C644.131 54.3606 653.058 56.4514 661.039 52.461" fill="none" opacity="1" stroke="#000000" stroke-linecap="butt" stroke-linejoin="round" stroke-width="18.6006"/>
<path d="M207.514 108.32C210.912 101.524 212.368 127.206 212.834 130.93C214.703 145.889 213.628 161.223 215.494 176.15C219.793 210.547 219.421 244.994 226.133 278.559C228.732 291.553 224.099 307.739 230.123 319.788" fill="none" opacity="1" stroke="#000000" stroke-linecap="butt" stroke-linejoin="round" stroke-width="18.6006"/>
<path d="M284.653 92.3606C284.653 119.571 282.165 148.781 284.653 176.15C286.693 198.59 288.248 223.989 285.983 246.639C284.179 264.678 281.62 282.973 284.653 301.168C285.689 307.386 283.081 313.984 285.983 319.788" fill="none" opacity="1" stroke="#000000" stroke-linecap="butt" stroke-linejoin="round" stroke-width="18.6006"/>
<path d="M351.152 89.7006C351.152 121.301 350.747 152.037 355.142 182.8C358.054 203.18 355.851 227.576 353.812 247.969C351.643 269.662 353.812 292.624 353.812 314.468" fill="none" opacity="1" stroke="#000000" stroke-linecap="butt" stroke-linejoin="round" stroke-width="18.6006"/>
<path d="M425.631 89.7006C421.936 119.264 421.947 149.152 418.981 178.81C418.416 184.464 419.914 190.503 418.981 196.099C415.898 214.602 417.307 233.431 414.991 251.959C411.863 276.988 409.671 300.988 409.671 326.438" fill="none" opacity="1" stroke="#000000" stroke-linecap="butt" stroke-linejoin="round" stroke-width="18.6006"/>
<path d="M486.811 77.7307C490.191 104.775 488.099 131.796 486.811 158.86C485.993 176.03 488.366 193.617 486.811 210.729C483.682 245.144 480.161 278.33 480.161 313.138" fill="none" opacity="1" stroke="#000000" stroke-linecap="butt" stroke-linejoin="round" stroke-width="18.6006"/>
<path d="M561.29 71.0808C561.29 94.6649 559.934 118.087 558.63 141.57C557.379 164.086 560.474 187.182 557.3 209.399C552.221 244.955 547.99 281.323 547.99 317.128" fill="none" opacity="1" stroke="#000000" stroke-linecap="butt" stroke-linejoin="round" stroke-width="18.6006"/>
<path d="M159.634 149.55C220.006 142.842 281.369 137.91 341.842 133.59C384.249 130.561 427.218 134.3 469.521 129.6C495.114 126.756 521.121 125.788 546.66 122.95C553.626 122.176 561.037 124.101 567.94 122.95C591.454 119.031 617.314 117.63 641.089 117.63" fill="none" opacity="1" stroke="#000000" stroke-linecap="butt" stroke-linejoin="round" stroke-width="18.6006"/>
<path d="M163.624 208.069C235.896 208.069 307.311 198.334 379.082 190.78C407.857 187.751 436.808 187.853 465.531 185.46C518.745 181.025 571.611 177.48 625.129 177.48" fill="none" opacity="1" stroke="#000000" stroke-linecap="butt" stroke-linejoin="round" stroke-width="18.6006"/>
<path d="M179.584 273.239C216.301 273.239 252.392 271.263 288.643 269.249C313.533 267.866 338.121 261.328 363.122 259.939C391.369 258.37 420.069 259.446 448.241 257.279C506.795 252.775 565.099 247.969 623.799 247.969" fill="none" opacity="1" stroke="#000000" stroke-linecap="butt" stroke-linejoin="round" stroke-width="18.6006"/>
<path d="M155.644 113.64C150.673 103.698 151.072 94.7684 148.994 84.3807C147.834 78.5808 144.826 72.8511 143.674 67.0909C142.638 61.9083 141.712 54.2784 138.354 49.801C124.127 30.8311 93.4607 29.8513 71.8551 29.8513C62.2062 29.8513 50.1219 30.7582 45.2554 40.4911C36.6259 57.7501 67.9718 65.3342 71.8551 49.801C74.3681 39.7492 57.3956 31.8298 54.5653 43.1511C51.2309 56.489 66.5352 60.198 66.5352 49.801" fill="none" opacity="1" stroke="#000000" stroke-linecap="butt" stroke-linejoin="round" stroke-width="18.6006"/>
<path d="M186.234 335.748C186.234 346.031 188.717 356.166 190.224 366.338C191.519 375.077 191.38 423.397 196.874 427.517C201.615 431.073 212.5 428.847 218.154 428.847C238.673 428.847 261.862 429.542 281.993 426.187C304.454 422.443 327.292 422.756 349.822 419.537C397.738 412.692 445.889 410.227 494.791 410.227C521.834 410.227 548.877 410.227 575.92 410.227C582.808 410.227 596.521 408.871 599.859 415.547" fill="none" opacity="1" stroke="#000000" stroke-linecap="butt" stroke-linejoin="round" stroke-width="18.6006"/>
<path d="M236.223 410.166C238.21 408.982 241.627 405.368 239.666 404.142C236.706 402.293 232.725 405.017 229.339 405.863C228.095 406.175 226.804 406.677 225.897 407.585C212.125 421.357 202.16 455.104 215.571 472.985C238.675 503.791 278.64 511.457 308.508 481.59C330.018 460.08 318.656 425.952 296.46 409.306C283.632 399.684 266.733 395.224 251.713 398.979C245.742 400.472 223.006 418.046 236.223 410.166Z" fill="none" opacity="1" stroke="#000000" stroke-linecap="butt" stroke-linejoin="round" stroke-width="18.6006"/>
<path d="M495.242 400.7C497.039 398.305 499.741 394.396 497.824 392.095C494.942 388.637 479.927 405.515 478.892 407.585C471.376 422.617 467.281 447.836 472.008 464.379C475.49 476.568 487.904 481.793 497.824 486.753C521.638 498.66 549.642 501.672 571.829 485.032C574.695 482.883 579.633 482.391 582.155 479.869C602.333 459.691 598.808 428.068 582.155 405.863C575.62 397.149 565.132 393.928 556.34 388.653C551.441 385.714 554.783 384.822 549.455 383.49C540.399 381.226 507.993 381.925 501.266 388.653C498.347 391.571 495.797 395.843 492.66 398.979C490.632 401.008 484.739 406.651 487.497 405.863C490.481 405.011 493.38 403.182 495.242 400.7Z" fill="none" opacity="1" stroke="#000000" stroke-linecap="butt" stroke-linejoin="round" stroke-width="18.6006"/>
<path d="M259.432 452.469C257.676 464.653 275.435 454.627 269.576 444.861C263.052 433.988 248.169 447.135 251.824 456.273C255.269 464.885 275.127 461.963 277.183 453.737C278.692 447.702 269.086 439.4 263.236 442.325C255.784 446.051 260.836 460.926 267.04 456.273C273.199 451.654 262.258 432.861 259.432 452.469Z" fill="none" opacity="1" stroke="#000000" stroke-linecap="butt" stroke-linejoin="round" stroke-width="18.6006"/>
<path d="M533.312 443.593C534.58 444.861 529.508 437.996 529.508 439.789C529.508 443.799 530.85 448.036 533.312 451.201C539.066 458.598 549.796 438.521 543.456 432.182C533.834 422.56 522.509 447.894 530.776 451.201C541.646 455.549 549.085 439.574 540.92 433.45C532.697 427.282 524.915 448.904 532.044 452.469C538.517 455.706 543.74 441.484 540.92 437.253C537.833 432.623 529.955 440.236 533.312 443.593Z" fill="none" opacity="1" stroke="#000000" stroke-linecap="butt" stroke-linejoin="round" stroke-width="18.6006"/>
</g>
<g id="Слой-4" vectornator:layerName="Слой 4"/>
<g clip-path="url(#ArtboardFrame)" id="Слой-2" vectornator:layerName="Слой 2">
<g fill="#000000" opacity="0" stroke="#000000" stroke-linecap="butt" stroke-linejoin="round" stroke-width="0">
<path clip-path="url(#TextBounds_2)" d="M142.409 1029.23L162.702 1034.1C171.597 1036.23 178.308 1039.08 182.836 1042.65C189.867 1048.19 193.382 1056.21 193.382 1066.7C193.382 1077.46 189.267 1086.39 181.038 1093.5C172.809 1100.61 161.184 1104.17 146.164 1104.17C130.824 1104.17 118.759 1100.67 109.971 1093.66C101.182 1086.66 96.7881 1077.03 96.7881 1064.78L120.277 1064.78C121.023 1070.16 122.488 1074.18 124.672 1076.85C128.667 1081.69 135.511 1084.12 145.205 1084.12C151.011 1084.12 155.725 1083.48 159.346 1082.2C166.217 1079.75 169.653 1075.19 169.653 1068.54C169.653 1064.65 167.949 1061.64 164.54 1059.51C161.131 1057.43 155.778 1055.59 148.481 1054L136.017 1051.2C123.766 1048.43 115.297 1045.42 110.61 1042.17C102.674 1036.74 98.7056 1028.24 98.7056 1016.68C98.7056 1006.14 102.541 997.376 110.211 990.399C117.881 983.421 129.146 979.932 144.006 979.932C156.417 979.932 167.003 983.221 175.765 989.8C184.527 996.378 189.121 1005.93 189.547 1018.44L165.898 1018.44C165.472 1011.36 162.382 1006.32 156.63 1003.34C152.795 1001.37 148.028 1000.39 142.329 1000.39C135.99 1000.39 130.93 1001.66 127.148 1004.22C123.367 1006.78 121.476 1010.35 121.476 1014.93C121.476 1019.13 123.34 1022.28 127.069 1024.35C129.465 1025.74 134.579 1027.36 142.409 1029.23Z"/>
<path clip-path="url(#TextBounds_2)" d="M261.613 1058.79L236.606 1058.79L236.606 1101.13L212.158 1101.13L212.158 983.368L263.451 983.368C275.275 983.368 284.703 986.404 291.734 992.476C298.765 998.548 302.28 1007.95 302.28 1020.68C302.28 1034.58 298.765 1044.41 291.734 1050.16C284.703 1055.91 274.663 1058.79 261.613 1058.79ZM277.912 1020.84C277.912 1014.71 276.3 1010.35 273.078 1007.74C269.856 1005.13 265.341 1003.82 259.536 1003.82L236.606 1003.82L236.606 1038.5L259.536 1038.5C265.341 1038.5 269.856 1037.08 273.078 1034.26C276.3 1031.44 277.912 1026.96 277.912 1020.84Z"/>
<path clip-path="url(#TextBounds_2)" d="M370.191 983.368L411.897 1101.13L385.212 1101.13L377.622 1076.93L334.238 1076.93L326.089 1101.13L300.362 1101.13L342.388 983.368L370.191 983.368ZM356.05 1010.29L340.87 1056.63L370.751 1056.63L356.05 1010.29Z"/>
<path clip-path="url(#TextBounds_2)" d="M497.465 1101.13L449.368 1017.48L449.368 1101.13L426.438 1101.13L426.438 983.368L452.244 983.368L499.143 1065.58L499.143 983.368L522.073 983.368L522.073 1101.13L497.465 1101.13Z"/>
<path clip-path="url(#TextBounds_2)" d="M543.086 983.368L567.534 983.368L567.534 1101.13L543.086 1101.13L543.086 983.368Z"/>
<path clip-path="url(#TextBounds_2)" d="M630.412 1029.23L650.705 1034.1C659.6 1036.23 666.311 1039.08 670.839 1042.65C677.87 1048.19 681.385 1056.21 681.385 1066.7C681.385 1077.46 677.271 1086.39 669.041 1093.5C660.812 1100.61 649.187 1104.17 634.167 1104.17C618.827 1104.17 606.763 1100.67 597.974 1093.66C589.185 1086.66 584.791 1077.03 584.791 1064.78L608.281 1064.78C609.026 1070.16 610.491 1074.18 612.675 1076.85C616.67 1081.69 623.514 1084.12 633.208 1084.12C639.014 1084.12 643.728 1083.48 647.35 1082.2C654.221 1079.75 657.656 1075.19 657.656 1068.54C657.656 1064.65 655.952 1061.64 652.543 1059.51C649.134 1057.43 643.781 1055.59 636.484 1054L624.02 1051.2C611.769 1048.43 603.3 1045.42 598.613 1042.17C590.677 1036.74 586.709 1028.24 586.709 1016.68C586.709 1006.14 590.544 997.376 598.214 990.399C605.884 983.421 617.149 979.932 632.01 979.932C644.42 979.932 655.006 983.221 663.768 989.8C672.53 996.378 677.124 1005.93 677.55 1018.44L653.901 1018.44C653.475 1011.36 650.386 1006.32 644.633 1003.34C640.798 1001.37 636.031 1000.39 630.332 1000.39C623.993 1000.39 618.933 1001.66 615.152 1004.22C611.37 1006.78 609.479 1010.35 609.479 1014.93C609.479 1019.13 611.343 1022.28 615.072 1024.35C617.469 1025.74 622.582 1027.36 630.412 1029.23Z"/>
<path clip-path="url(#TextBounds_2)" d="M723.81 1048.56L723.81 1101.13L699.442 1101.13L699.442 983.368L723.81 983.368L723.81 1028.27L769.83 1028.27L769.83 983.368L794.278 983.368L794.278 1101.13L769.83 1101.13L769.83 1048.56L723.81 1048.56Z"/>
<path clip-path="url(#TextBounds_2)" d="M903.176 1029.23L923.469 1034.1C932.364 1036.23 939.076 1039.08 943.603 1042.65C950.634 1048.19 954.149 1056.21 954.149 1066.7C954.149 1077.46 950.035 1086.39 941.805 1093.5C933.576 1100.61 921.951 1104.17 906.931 1104.17C891.591 1104.17 879.527 1100.67 870.738 1093.66C861.949 1086.66 857.555 1077.03 857.555 1064.78L881.045 1064.78C881.79 1070.16 883.255 1074.18 885.439 1076.85C889.434 1081.69 896.278 1084.12 905.972 1084.12C911.778 1084.12 916.492 1083.48 920.114 1082.2C926.985 1079.75 930.42 1075.19 930.42 1068.54C930.42 1064.65 928.716 1061.64 925.307 1059.51C921.898 1057.43 916.545 1055.59 909.248 1054L896.784 1051.2C884.533 1048.43 876.064 1045.42 871.377 1042.17C863.441 1036.74 859.473 1028.24 859.473 1016.68C859.473 1006.14 863.308 997.376 870.978 990.399C878.648 983.421 889.913 979.932 904.774 979.932C917.184 979.932 927.77 983.221 936.532 989.8C945.294 996.378 949.888 1005.93 950.314 1018.44L926.665 1018.44C926.239 1011.36 923.15 1006.32 917.397 1003.34C913.562 1001.37 908.795 1000.39 903.096 1000.39C896.757 1000.39 891.697 1001.66 887.916 1004.22C884.134 1006.78 882.243 1010.35 882.243 1014.93C882.243 1019.13 884.107 1022.28 887.836 1024.35C890.233 1025.74 895.346 1027.36 903.176 1029.23Z"/>
<path clip-path="url(#TextBounds_2)" d="M996.574 1048.56L996.574 1101.13L972.206 1101.13L972.206 983.368L996.574 983.368L996.574 1028.27L1042.59 1028.27L1042.59 983.368L1067.04 983.368L1067.04 1101.13L1042.59 1101.13L1042.59 1048.56L996.574 1048.56Z"/>
<path clip-path="url(#TextBounds_2)" d="M1181.21 993.515C1193.09 1004.33 1199.03 1020.52 1199.03 1042.09C1199.03 1063.24 1193.09 1079.43 1181.21 1090.67C1172.32 1099.83 1159.45 1104.41 1142.62 1104.41C1125.79 1104.41 1112.93 1099.83 1104.03 1090.67C1092.1 1079.43 1086.14 1063.24 1086.14 1042.09C1086.14 1020.52 1092.1 1004.33 1104.03 993.515C1112.93 984.353 1125.79 979.773 1142.62 979.773C1159.45 979.773 1172.32 984.353 1181.21 993.515ZM1142.62 1000.63C1132.88 1000.63 1125.1 1004.22 1119.29 1011.41C1113.49 1018.6 1110.58 1028.83 1110.58 1042.09C1110.58 1055.35 1113.49 1065.58 1119.29 1072.77C1125.1 1079.96 1132.88 1083.56 1142.62 1083.56C1152.37 1083.56 1160.11 1079.96 1165.83 1072.77C1171.56 1065.58 1174.42 1055.35 1174.42 1042.09C1174.42 1028.88 1171.56 1018.67 1165.83 1011.45C1160.11 1004.23 1152.37 1000.63 1142.62 1000.63Z"/>
<path clip-path="url(#TextBounds_2)" d="M1267.82 1058.79L1242.81 1058.79L1242.81 1101.13L1218.36 1101.13L1218.36 983.368L1269.66 983.368C1281.48 983.368 1290.91 986.404 1297.94 992.476C1304.97 998.548 1308.49 1007.95 1308.49 1020.68C1308.49 1034.58 1304.97 1044.41 1297.94 1050.16C1290.91 1055.91 1280.87 1058.79 1267.82 1058.79ZM1284.12 1020.84C1284.12 1014.71 1282.51 1010.35 1279.28 1007.74C1276.06 1005.13 1271.55 1003.82 1265.74 1003.82L1242.81 1003.82L1242.81 1038.5L1265.74 1038.5C1271.55 1038.5 1276.06 1037.08 1279.28 1034.26C1282.51 1031.44 1284.12 1026.96 1284.12 1020.84Z"/>
</g>
</g>
<g clip-path="url(#ArtboardFrame)" id="Слой-5" opacity="0.5" vectornator:layerName="Слой 5" visibility="hidden">
<g opacity="1">
<path d="M2118.06 1921.12C2115.67 1925.89 2113.32 1930.68 2110.75 1935.34C2109.54 1937.53 2108.2 1939.56 2106.91 1941.69C2106.41 1942.51 2106.06 1943.43 2105.59 1944.28C2105.35 1944.72 2105.02 1945.12 2104.78 1945.56C2103.68 1947.6 2103.12 1949.98 2102.47 1952.19C2101.51 1957.6 2105.12 1962.79 2110.53 1963.75C2115.95 1964.71 2121.11 1961.07 2122.06 1955.66C2122.2 1953.36 2122.49 1950.92 2122.16 1948.62C2122.08 1948.13 2121.92 1947.65 2121.84 1947.16C2121.69 1946.2 2121.69 1945.23 2121.5 1944.28C2121.02 1941.84 2120.45 1939.44 2120.06 1936.97C2119.24 1931.7 2118.68 1926.42 2118.06 1921.12Z" fill="#000000" stroke="none"/>
</g>
<path d="M2087.17 1942.35C2093.51 1895.45 2099.32 1848.48 2104.55 1801.44" fill="none" opacity="1" stroke="#000000" stroke-linecap="butt" stroke-linejoin="round" stroke-width="21.886"/>
<path d="M734.256 591.879C739.934 608.911 742.851 631.636 739.301 649.388C737.512 658.334 731.399 665.861 729.212 674.611C727.944 679.681 730.238 685.621 729.212 690.753C725.76 708.01 730.221 723.232 730.221 740.191" fill="none" opacity="1" stroke="#000000" stroke-linecap="butt" stroke-linejoin="round" stroke-width="11.443"/>
<path d="M736.274 602.978C736.274 601.296 735.341 599.332 736.274 597.933C736.97 596.889 760.605 594.014 762.506 595.915C766.398 599.807 760.79 635.76 762.506 644.343C764.488 654.251 774.591 659.366 776.631 669.566C780.074 686.784 781.676 704.248 781.676 722.03C781.676 725.448 783.241 734.034 781.676 737.164C780.068 740.378 770.259 738.64 767.551 739.182C756.42 741.408 742.477 741.199 731.23 741.199" fill="none" opacity="1" stroke="#000000" stroke-linecap="butt" stroke-linejoin="round" stroke-width="11.443"/>
<path d="M742.832 590.871C724.403 588.523 752.603 579.508 754.435 586.835C755.365 590.555 743.337 589.862 743.337 589.862C743.337 589.862 746.815 588.959 746.363 589.862C745.816 590.957 744.047 591.025 742.832 590.871Z" fill="none" opacity="1" stroke="#000000" stroke-linecap="butt" stroke-linejoin="round" stroke-width="11.443"/>
<path d="M809.925 588.853C809.589 588.18 809.668 586.835 808.916 586.835C806.899 586.835 808.916 590.871 808.916 592.888C808.916 594.234 808.726 595.592 808.916 596.924C810.02 604.653 812.672 612.395 813.961 620.129C815.956 632.101 819.488 657.832 834.139 661.495C840.355 663.049 847.129 662.977 853.309 664.522C863.625 667.101 868.941 654.965 870.46 647.37C874.194 628.702 869.451 606.618 869.451 587.844" fill="none" opacity="1" stroke="#000000" stroke-linecap="butt" stroke-linejoin="round" stroke-width="11.443"/>
<path d="M843.22 669.566C843.22 660.326 850.21 685.492 850.282 685.709C854.43 698.154 853.309 711.901 853.309 725.057C853.309 729.057 854.79 734.352 850.282 736.155C844.575 738.437 837.001 740.022 831.113 741.199C830.123 741.397 828.086 741.199 828.086 741.199C828.086 741.199 835.507 741.683 839.184 742.208C845.584 743.123 851.855 744.226 858.353 744.226C860.399 744.226 862.422 744.739 864.407 745.235C865.059 745.398 866.9 745.711 866.425 745.235C862.672 741.482 852.258 741.199 847.255 741.199C844.877 741.199 838.511 741.872 840.193 740.191C843.283 737.101 853.435 739.74 857.344 739.182C858.746 738.981 871.469 737.18 871.469 738.173C871.469 739.984 868.211 739.893 866.425 740.191C858.772 741.466 847.079 738.765 840.193 742.208" fill="none" opacity="1" stroke="#000000" stroke-linecap="butt" stroke-linejoin="round" stroke-width="11.443"/>
<path d="M1547.45 1411.12C1540.52 1422.66 1532.13 1433.32 1523.23 1443.41" fill="none" opacity="1" stroke="#000000" stroke-linecap="butt" stroke-linejoin="round" stroke-width="11.443"/>
<path d="M812.448 587.339C813.7 595.43 827.111 590.871 835.148 590.871C840.35 590.871 844.945 589.862 850.282 589.862C855.963 589.862 862.359 589.342 867.434 591.879C868.106 592.216 869.451 592.888 869.451 592.888C869.451 592.888 866.761 590.871 865.416 589.862C862.732 587.849 859.693 585.656 856.336 584.817C847.224 582.539 810.81 576.761 812.448 587.339Z" fill="none" opacity="1" stroke="#000000" stroke-linecap="butt" stroke-linejoin="round" stroke-width="11.443"/>
<path d="M727.2 680.806C742.467 675.717 759.092 684.072 774.847 678.821" fill="none" opacity="1" stroke="#000000" stroke-linecap="butt" stroke-linejoin="round" stroke-width="11.443"/>
<path d="M732.163 713.564C747.024 713.564 761.928 714.556 776.832 714.556" fill="none" opacity="1" stroke="#000000" stroke-linecap="butt" stroke-linejoin="round" stroke-width="11.443"/>
<path d="M972.789 589.763C964.16 602.705 966.28 624.171 961.34 638.99C954.952 658.154 949.197 676.81 945.313 696.23C942.537 710.11 930.43 724.248 930.43 738.588" fill="none" opacity="1" stroke="#000000" stroke-linecap="butt" stroke-linejoin="round" stroke-width="11.443"/>
<path d="M968.209 589.763C968.209 601.443 975.486 611.672 977.368 622.962C980.568 642.162 993.339 658.228 997.974 676.768C999.713 683.721 1004.86 694.728 1009.42 700.81C1015.84 709.363 1018.63 717.476 1025.45 725.995C1026.52 727.334 1031.88 733.041 1031.17 735.154C1029.6 739.871 1009.9 737.611 1005.99 738.588C993.715 741.657 980.596 741.835 968.209 744.312C962.039 745.546 954.847 742.787 948.747 744.312C942.484 745.878 932.816 746.794 929.286 739.733" fill="none" opacity="1" stroke="#000000" stroke-linecap="butt" stroke-linejoin="round" stroke-width="11.443"/>
<path d="M962.485 596.632C968.423 596.632 980.542 624.992 987.671 632.121C1001.77 646.222 1012.33 660.798 1024.31 676.768C1029.31 683.443 1036.25 688.112 1041.48 695.085C1044.63 699.293 1057.44 717.115 1056.36 721.416C1053.69 732.085 1031.34 735.154 1022.02 735.154" fill="none" opacity="1" stroke="#000000" stroke-linecap="butt" stroke-linejoin="round" stroke-width="11.443"/>
<path d="M938.444 712.83C940.119 709.271 940.164 704.655 943.023 701.954C948.231 697.036 956.061 716.244 952.182 721.416C950.293 723.934 932.67 725.2 933.865 721.416C934.842 718.323 937.063 715.765 938.444 712.83Z" fill="none" opacity="1" stroke="#000000" stroke-linecap="butt" stroke-linejoin="round" stroke-width="11.443"/>
<path d="M967.064 680.775C969.431 677.225 971.036 687.609 973.933 690.506C977.869 694.442 985.332 690.706 986.526 685.927C988.281 678.908 979.205 673.057 972.789 675.624C971.678 676.068 963.855 685.59 967.064 680.775Z" fill="none" opacity="1" stroke="#000000" stroke-linecap="butt" stroke-linejoin="round" stroke-width="11.443"/>
<path d="M971.644 640.134L971.644 645.859L975.078 653.872L977.368 655.017L979.657 653.872L981.947 652.727L981.947 650.438L981.947 650.438" fill="none" opacity="1" stroke="#000000" stroke-linecap="butt" stroke-linejoin="round" stroke-width="11.443"/>
<path d="M1006.56 719.127C1004.74 715.944 1001.64 712.258 997.974 712.258C995.415 712.258 995.439 716.73 994.54 719.127C992.384 724.876 1005.52 734.084 1007.13 728.285C1007.95 725.338 1008.08 721.782 1006.56 719.127Z" fill="none" opacity="1" stroke="#000000" stroke-linecap="butt" stroke-linejoin="round" stroke-width="11.443"/>
<path d="M1059.43 586.831C1059.39 588.697 1057.64 590.589 1058.34 592.323C1058.74 593.343 1060.61 591.915 1061.63 592.323C1063.5 593.069 1067.7 597.621 1069.32 598.913C1075.04 603.488 1079.77 606.28 1085.79 609.896C1092.47 613.899 1096.28 622.58 1101.17 627.47C1115.33 641.631 1111 663.271 1122.04 677.994C1123.98 680.583 1122.83 684.28 1125.34 686.781C1133.51 694.96 1141.57 707.066 1151.7 713.142C1169.95 724.097 1193.55 735.352 1214.3 739.502C1218.17 740.277 1222.51 738.728 1226.38 739.502C1240.43 742.311 1265.41 736.526 1274.71 724.125C1281.81 714.654 1284.95 700.061 1286.79 688.978C1288.28 680.028 1288.99 670.616 1288.99 661.519C1288.99 653.889 1289.73 645.794 1287.89 638.454C1285.49 628.854 1272.26 621.915 1263.73 619.782C1238.76 613.54 1212 623.715 1186.84 618.683C1176.92 616.7 1165.95 615.656 1156.09 613.192C1148.09 611.191 1140.67 605.935 1133.02 604.405C1118.98 601.596 1108.82 589.292 1094.58 585.733C1083.35 582.925 1072.78 576.439 1061.63 573.651C1057.97 572.735 1055.73 576.645 1051.75 575.847C1042.42 573.982 1038.39 568.337 1029.78 576.946C1025.85 580.872 1048.66 590.388 1052.84 591.224C1060.33 592.722 1059.75 574.074 1059.43 586.831Z" fill="none" opacity="1" stroke="#000000" stroke-linecap="butt" stroke-linejoin="round" stroke-width="11.443"/>
<path d="M1056.14 573.651C1059.94 566.052 1038.81 558.176 1033.07 560.47C1027.67 562.63 1027.69 571.561 1030.88 574.749" fill="none" opacity="1" stroke="#000000" stroke-linecap="butt" stroke-linejoin="round" stroke-width="11.443"/>
<path d="M1072.61 557.175C1068.62 555.334 1071.8 566.038 1072.61 570.356C1073.3 574.003 1074.61 575.904 1075.91 579.143C1079.46 588.014 1075.91 598.73 1075.91 607.7C1075.91 611.361 1075.91 615.022 1075.91 618.683C1075.91 619.782 1077.01 621.978 1075.91 621.978C1072.81 621.978 1074.16 599.379 1073.71 596.716C1071.88 585.707 1068.22 573.862 1068.22 562.667C1068.22 560.078 1065.29 556.809 1067.12 554.979C1068.28 553.821 1072.67 556.018 1071.52 557.175C1070.74 557.952 1069.13 556.566 1068.22 557.175C1064.71 559.516 1073.67 563.98 1073.71 563.766C1074.15 561.582 1074.64 558.109 1072.61 557.175Z" fill="none" opacity="1" stroke="#000000" stroke-linecap="butt" stroke-linejoin="round" stroke-width="11.443"/>
<path d="M1068.22 623.077C1079.45 634.306 1077.24 647.788 1079.2 661.519C1081.5 677.584 1083.7 694.969 1086.89 710.945C1088.23 717.652 1084.69 733.128 1092.38 736.207C1094.56 737.079 1097.75 735.742 1100.07 736.207C1108.89 737.97 1117.61 740.439 1126.43 741.699C1129.98 742.206 1133.91 740.997 1137.42 741.699C1149.75 744.166 1167.93 744.78 1180.25 741.699C1187.81 739.81 1199.22 741.319 1206.61 742.797C1223.17 746.11 1242.79 741.699 1259.33 741.699C1270.17 741.699 1305.68 745.586 1313.15 740.601C1318.1 737.304 1310.34 720.052 1306.56 717.535C1305.95 717.129 1293.75 723.612 1291.19 724.125C1282.88 725.787 1252.24 731.563 1246.15 728.519" fill="none" opacity="1" stroke="#000000" stroke-linecap="butt" stroke-linejoin="round" stroke-width="11.443"/>
<path d="M1138.52 727.97C1140.99 725.95 1143.12 720.739 1140.71 718.634C1136.82 715.224 1130.48 716.979 1125.34 716.437C1112.35 715.07 1093.5 719.08 1081.4 714.24C1078.97 713.269 1068.53 708.436 1066.02 710.945C1063.92 713.046 1065.13 734.144 1068.22 736.207C1071.22 738.204 1082.15 736.207 1085.79 736.207C1093.48 736.207 1101.17 736.207 1108.86 736.207C1122.57 736.207 1126.41 737.832 1138.52 727.97Z" fill="none" opacity="1" stroke="#000000" stroke-linecap="butt" stroke-linejoin="round" stroke-width="11.443"/>
<path d="M1257.19 1228.63C1257.19 1234.18 1255.23 1237.95 1253.71 1243.25" fill="none" opacity="1" stroke="#000000" stroke-linecap="butt" stroke-linejoin="round" stroke-width="11.443"/>
<path d="M1298.26 1234.2C1300.22 1220.48 1307.61 1205.82 1312.18 1193.83" fill="none" opacity="1" stroke="#000000" stroke-linecap="butt" stroke-linejoin="round" stroke-width="11.443"/>
<path d="M878.204 724.004C875.946 729.834 882.586 736.746 886.904 730.268C889.806 725.915 885.791 721.219 881.336 721.219C879.802 721.219 878.691 722.745 878.204 724.004Z" fill="none" opacity="1" stroke="#000000" stroke-linecap="butt" stroke-linejoin="round" stroke-width="11.443"/>
<path d="M899.085 730.268C896.774 731.106 897.089 734.81 896.649 737.228C896.185 739.78 901.899 740.172 903.609 739.316C906.059 738.091 909.613 730.326 906.393 728.18C903.571 726.298 900.697 729.683 899.085 730.268Z" fill="none" opacity="1" stroke="#000000" stroke-linecap="butt" stroke-linejoin="round" stroke-width="11.443"/>
<path d="M887.601 740.012C890.648 743.06 895.064 744.692 898.041 747.669C907.501 757.128 920.158 767.596 934.235 769.942C942.067 771.247 950.145 772.179 957.9 774.118C961.018 774.898 981.565 784.378 981.565 785.951C981.565 785.983 972.269 788.163 971.125 788.735C960.609 793.993 956.352 788.096 948.852 782.47C944.515 779.218 940.31 777.409 936.323 773.422" fill="none" opacity="1" stroke="#000000" stroke-linecap="butt" stroke-linejoin="round" stroke-width="11.443"/>
<path d="M906.393 761.937C903.026 761.763 905.697 768.658 905.697 772.03C905.697 775.316 903.999 786.341 906.393 788.735C909.557 791.898 914.261 780.718 914.746 778.294C915.77 773.176 911.222 762.188 906.393 761.937Z" fill="none" opacity="1" stroke="#000000" stroke-linecap="butt" stroke-linejoin="round" stroke-width="11.443"/>
<path d="M909.526 756.369C908.688 756.088 907.707 754.358 908.482 753.933C912.086 751.956 916.336 751.491 920.314 750.453C924.121 749.46 942.788 745.782 945.371 748.365C949.412 752.405 941.385 756.67 938.411 757.413C928.907 759.789 918.963 759.534 909.526 756.369Z" fill="none" opacity="1" stroke="#000000" stroke-linecap="butt" stroke-linejoin="round" stroke-width="11.443"/>
<path d="M881.336 738.272C879.021 744.387 875.82 750.13 872.984 756.021C872.003 758.058 865.903 770.517 868.808 773.422C871.917 776.532 875.387 768.593 876.464 767.158C880.509 761.764 878.692 756.015 879.944 749.757C880.416 747.397 881.381 738.154 881.336 738.272Z" fill="none" opacity="1" stroke="#000000" stroke-linecap="butt" stroke-linejoin="round" stroke-width="11.443"/>
<path d="M1445.04 1454.27C1446.1 1451.07 1447.17 1447.87 1448.24 1444.68" fill="none" opacity="1" stroke="#000000" stroke-linecap="butt" stroke-linejoin="round" stroke-width="11.443"/>
<path d="M794.012 739.31C776.728 747.952 763.07 763.888 753.523 779.799C749.704 786.164 743.133 792.854 740.737 800.044C737.669 809.247 734.086 818.381 732.213 827.747C731.443 831.594 731.147 839.468 731.147 839.468C731.147 839.468 730.475 829.353 733.278 825.616C736.051 821.92 744.998 798.977 741.802 795.782C741.241 795.22 740.442 796.655 739.671 796.847C730.751 799.078 721.009 791.391 711.968 793.651C709.657 794.229 704.509 794.716 705.575 796.847C707.824 801.345 732.563 793.476 736.475 791.52" fill="none" opacity="1" stroke="#000000" stroke-linecap="butt" stroke-linejoin="round" stroke-width="11.443"/>
<path d="M748.195 787.258C739.495 785.703 747.028 804.585 750.326 812.83C750.774 813.95 754.367 824.551 755.654 824.551C757.519 824.551 756.719 814.744 756.719 813.896C756.719 804.06 757.583 788.936 748.195 787.258Z" fill="none" opacity="1" stroke="#000000" stroke-linecap="butt" stroke-linejoin="round" stroke-width="11.443"/>
<path d="M730.614 792.585C729.004 792.878 724.221 794.006 725.82 793.651C729.016 792.941 732.188 792.106 735.409 791.52C736.108 791.393 738.234 791.366 737.54 791.52C735.26 792.027 732.913 792.168 730.614 792.585Z" fill="none" opacity="1" stroke="#000000" stroke-linecap="butt" stroke-linejoin="round" stroke-width="11.443"/>
<path d="M750.326 771.275C742.615 766.738 734.009 764.097 724.754 765.948C720.943 766.71 709.354 773.506 711.968 778.734C712.686 780.169 720.314 776.958 721.558 776.603C727.686 774.852 733.834 775.931 739.671 774.472C743.174 773.596 753.498 773.141 750.326 771.275Z" fill="none" opacity="1" stroke="#000000" stroke-linecap="butt" stroke-linejoin="round" stroke-width="11.443"/>
<path d="M771.637 761.686C764.98 767.605 769.506 779.416 769.506 788.323C769.506 798.454 775.598 794.088 776.964 787.258C778.053 781.813 777.229 756.712 771.637 761.686Z" fill="none" opacity="1" stroke="#000000" stroke-linecap="butt" stroke-linejoin="round" stroke-width="11.443"/>
<path d="M767.375 750.498C765.322 751.28 763.177 752.169 760.981 752.096C754.522 751.881 748.409 747.798 741.802 748.899C740.335 749.144 734.539 751.616 735.409 754.227C736.847 758.54 756.05 753.063 759.916 752.096C761.351 751.737 769.838 749.558 767.375 750.498Z" fill="none" opacity="1" stroke="#000000" stroke-linecap="butt" stroke-linejoin="round" stroke-width="11.443"/>
<path d="M802.004 731.851C807.3 719.111 803.103 750.964 808.929 739.31C810.688 735.792 805.334 722.172 800.405 725.458C799.507 726.057 797.949 741.605 802.004 731.851Z" fill="none" opacity="1" stroke="#000000" stroke-linecap="butt" stroke-linejoin="round" stroke-width="11.443"/>
<path d="M820.117 727.589C815.759 729.125 815.322 730.582 815.322 737.179C815.322 741.473 830.956 730.795 828.109 726.524C824.979 721.829 814.116 733.842 817.453 737.179C820.08 739.805 828.017 732.779 825.978 729.72C824.91 728.119 821.915 726.956 820.117 727.589Z" fill="none" opacity="1" stroke="#000000" stroke-linecap="butt" stroke-linejoin="round" stroke-width="11.443"/>
<path d="M-120.314 1849.13C-123.536 1845.91-125.698 1841.02-129.981 1839.47C-133.665 1838.13-137.714 1840.75-141.581 1841.4" fill="none" opacity="1" stroke="#000000" stroke-linecap="butt" stroke-linejoin="round" stroke-width="11.443"/>
</g>
<g clip-path="url(#ArtboardFrame)" id="Слой-6" vectornator:layerName="Слой 6">
<path d="M1024.38-416.225C1023.88-417.252 1023.39-418.28 1022.89-419.308" fill="none" opacity="1" stroke="#000000" stroke-linecap="butt" stroke-linejoin="round" stroke-width="11.443"/>
<path d="M66.9372 103.217C73.4346 116.648 72.6767 136.753 69.9199 150.999C68.5815 157.916 71.2583 165.662 69.9199 172.578C67.7429 183.829 66.1367 195.212 63.9545 206.489C61.3082 220.164 51.7402 232.616 49.0411 246.564C42.6624 279.527 44.567 315.493 44.567 349.836" fill="none" opacity="1" stroke="#000000" stroke-linecap="butt" stroke-linejoin="round" stroke-width="3.19853"/>
<path d="M96.1329 105.835C95.2252 111.916 93.0414 123.004 94.2728 129.624C95.1295 134.229 95.6693 142.191 94.689 146.977C92.4585 157.868 90.9721 177.508 92.6378 188.411C94.3924 199.896 97.0896 211.883 100.065 223.003C101.575 228.648 105.123 234.193 106.186 239.907C108.747 253.674 111.574 267.59 113.116 281.607C115.612 304.309 109.751 327.186 109.118 349.923" fill="none" opacity="1" stroke="#000000" stroke-linecap="butt" stroke-linejoin="round" stroke-width="3.19853"/>
<path d="M43.8229 349.784C43.8229 356.593 51.3869 355.832 56.5015 355.832C69.4321 355.832 84.3286 357.003 96.9753 354.824C102.175 353.928 109.166 357.769 109.166 350.288" fill="none" opacity="1" stroke="#000000" stroke-linecap="butt" stroke-linejoin="round" stroke-width="3.19853"/>
<path d="M66.7418 106.355C66.7418 102.837 63.1827 101.97 66.2542 98.7953C68.4261 96.5505 96.2598 98.1222 96.9753 101.819C97.2692 103.338 96 106.355 96 106.355C96 106.355 96.3544 101.187 94.5371 100.811C91.5569 100.195 89.2632 102.599 86.2473 101.819C82.8252 100.935 79.6465 99.8033 76.0069 99.8033C74.2852 99.8033 65.2789 98.8154 65.2789 101.819C65.2789 106.789 89.4366 107.227 93.0742 105.347" fill="none" opacity="1" stroke="#000000" stroke-linecap="butt" stroke-linejoin="round" stroke-width="3.19853"/>
<path d="M74.544 102.323C70.709 104.305 68.1306 97.2148 70.6429 95.2673C72.513 93.8177 76.254 93.7043 78.4451 93.2514C86.7541 91.5338 91.1236 92.5509 91.1236 102.323" fill="none" opacity="1" stroke="#000000" stroke-linecap="butt" stroke-linejoin="round" stroke-width="3.19853"/>
<path d="M76.0069 93.2514C71.1862 90.7601 75.4273 88.3312 78.4451 87.7074C82.7352 86.8206 89.2165 89.6311 92.5865 92.2434C93.3849 92.8622 91.6113 98.4067 91.6113 99.8033" fill="none" opacity="1" stroke="#000000" stroke-linecap="butt" stroke-linejoin="round" stroke-width="3.19853"/>
<path d="M47.2364 256.545C49.9192 262.091 56.6839 260.777 61.3778 261.585C71.7262 263.368 88.693 264.229 98.9258 261.585C101.899 260.817 105.597 259.065 108.679 259.065" fill="none" opacity="1" stroke="#000000" stroke-linecap="butt" stroke-linejoin="round" stroke-width="3.19853"/>
<path d="M44.3105 302.913C47.2049 303.91 49.7088 306.091 52.6004 306.945C68.4399 311.622 98.2059 309.837 112.58 302.409" fill="none" opacity="1" stroke="#000000" stroke-linecap="butt" stroke-linejoin="round" stroke-width="3.19853"/>
<path d="M130.076 198.495C130.076 222.082 125.457 243.505 135.941 265.176C148.584 291.311 192.549 295.272 209.256 272.249C220.191 257.18 214.289 244.369 218.054 228.805C219.545 222.641 220.591 212.015 219.031 205.567C218.44 203.122 217.076 202.179 217.076 199.505" fill="none" opacity="1" stroke="#000000" stroke-linecap="butt" stroke-linejoin="round" stroke-width="3.19853"/>
<path d="M133.008 199.505C128.759 204.896 142.19 205.444 147.671 206.578C164.533 210.063 181.355 208.735 197.526 204.557C200.178 203.871 211.869 204.208 213.166 201.526C214.745 198.262 197.513 197.485 195.571 197.485C191.335 197.485 187.099 197.485 182.863 197.485C175.956 197.485 169.092 198.495 162.334 198.495C152.87 198.495 138.999 191.905 133.008 199.505Z" fill="none" opacity="1" stroke="#000000" stroke-linecap="butt" stroke-linejoin="round" stroke-width="3.19853"/>
<path d="M171.725 289.004C178.301 306.893 167.562 333.984 174.255 352.19" fill="none" opacity="1" stroke="#000000" stroke-linecap="butt" stroke-linejoin="round" stroke-width="3.19853"/>
<path d="M170.685 348.672C164.196 353.852 154.482 350.97 147.131 353.856C146.141 354.245 137.783 357.706 138.001 358.298C139.356 361.984 150.096 362.255 153.237 362.583C167.059 364.024 181.914 360.902 195.345 358.883C197.454 358.566 211.767 359.931 212.05 357.029C212.332 354.14 203.921 351.687 202.153 351.503C196.288 350.892 175.904 344.504 170.685 348.672Z" fill="none" opacity="1" stroke="#000000" stroke-linecap="butt" stroke-linejoin="round" stroke-width="3.19853"/>
<path d="M133.732 220.145C141.007 231.018 186.277 229.678 201.206 225.821C203.682 225.181 222.373 220.127 216.898 214.468C213.481 210.937 203.092 216.998 199.637 217.712C184.818 220.775 166.146 217.712 150.993 217.712C145.788 217.712 130.632 215.512 133.732 220.145Z" fill="none" opacity="1" stroke="#000000" stroke-linecap="butt" stroke-linejoin="round" stroke-width="3.19853"/>
<path d="M110.754 346.046C113.888 349.285 118.176 351.231 121.177 354.333C130.851 364.331 136.504 378.46 146.031 388.307C157.337 399.992 183.212 415.427 198.946 418.138C203.673 418.952 230.689 428.419 234.223 424.767C236.114 422.813 224.266 419.622 222.999 418.967C213.726 414.175 202.147 413.995 191.731 413.995" fill="none" opacity="1" stroke="#000000" stroke-linecap="butt" stroke-linejoin="round" stroke-width="3.19853"/>
<path d="M168.48 406.951C164.557 405.748 171.676 442.997 178.903 442.997C182.767 442.997 179.308 433.901 178.903 432.225C177.236 425.336 175.351 409.058 168.48 406.951Z" fill="none" opacity="1" stroke="#000000" stroke-linecap="butt" stroke-linejoin="round" stroke-width="3.19853"/>
<path d="M169.683 402.808C173.766 392.609 193.169 390.793 203.757 390.793C206.609 390.793 213.023 387.669 214.18 392.45C215.371 397.375 208.061 399.003 204.559 399.908C198.169 401.559 190.989 399.398 184.515 400.736C180.212 401.626 168.088 406.79 169.683 402.808Z" fill="none" opacity="1" stroke="#000000" stroke-linecap="butt" stroke-linejoin="round" stroke-width="3.19853"/>
<path d="M140.419 385.821C129.33 384.975 133.424 410.597 130.798 421.452C130.217 423.854 130.398 432.535 134.807 431.396C138.318 430.489 138.222 423.907 138.815 421.452C141.208 411.561 150.881 386.619 140.419 385.821Z" fill="none" opacity="1" stroke="#000000" stroke-linecap="butt" stroke-linejoin="round" stroke-width="3.19853"/>
<path d="M141.622 385.821C142.482 377.483 153.447 381.229 160.463 380.02C164.471 379.33 168.632 378.531 172.489 377.535C174.232 377.084 186.92 376.752 186.92 379.192C186.92 382.264 178.846 384.507 176.497 384.992C169.707 386.396 140.933 392.498 141.622 385.821Z" fill="none" opacity="1" stroke="#000000" stroke-linecap="butt" stroke-linejoin="round" stroke-width="3.19853"/>
<path d="M120.776 357.647C114.512 359.713 113.289 369.301 109.953 375.049C107.955 378.489 106.018 383.857 105.142 387.478C104.421 390.457 98.2479 400.24 101.133 403.222C105.01 407.229 112.254 397.289 113.961 394.936C116.588 391.316 124.619 356.38 120.776 357.647Z" fill="none" opacity="1" stroke="#000000" stroke-linecap="butt" stroke-linejoin="round" stroke-width="3.19853"/>
<path d="M123.582 357.233C121.709 354.792 129.588 358.186 132.401 359.304C139.042 361.944 150.539 368.107 155.652 373.391C163.294 381.29 148.41 378.764 144.428 376.706C134.612 371.634 130.031 365.638 123.582 357.233Z" fill="none" opacity="1" stroke="#000000" stroke-linecap="butt" stroke-linejoin="round" stroke-width="3.19853"/>
<path d="M110.353 342.317C112.578 351.336 138.877 356.244 134.807 339.417C132.422 329.558 108.242 333.754 110.353 342.317Z" fill="none" opacity="1" stroke="#000000" stroke-linecap="butt" stroke-linejoin="round" stroke-width="3.19853"/>
<path d="M108.349 353.504C104.495 355.546 103.624 357.718 101.935 361.79C100.205 365.961 103.557 375.588 109.151 371.734C114.988 367.712 121.05 346.775 108.349 353.504Z" fill="none" opacity="1" stroke="#000000" stroke-linecap="butt" stroke-linejoin="round" stroke-width="3.19853"/>
<path d="M289.584 205.703C273.783 243.559 262.562 283.735 244.766 320.521C243.071 324.025 229.891 352.979 231.416 354.03C241.323 360.856 266.032 359.943 278.141 359.943C291.592 359.943 337.21 366.074 341.077 350.087C344.17 337.3 339.228 320.762 336.309 308.694C330.388 284.217 328.308 257.661 317.237 234.777C313.29 226.618 310.874 216.374 304.841 210.138C302.698 207.924 300.096 208.191 298.166 206.196C294.501 202.409 291.937 200.065 289.584 205.703Z" fill="none" opacity="1" stroke="#000000" stroke-linecap="butt" stroke-linejoin="round" stroke-width="3.19853"/>
<path d="M306.716 259.415C305.915 262.117 306.252 270.945 312.026 267.119C315.568 264.771 315.454 256.509 310.86 255.848C309.298 255.623 307.578 256.508 306.716 259.415Z" fill="none" opacity="1" stroke="#000000" stroke-linecap="butt" stroke-linejoin="round" stroke-width="3.19853"/>
<path d="M266.86 293.355C267.527 298.567 276.453 301.395 278.278 294.685C279.61 289.788 271.494 284.228 268.118 288.553C267.135 289.812 266.662 291.804 266.86 293.355Z" fill="none" opacity="1" stroke="#000000" stroke-linecap="butt" stroke-linejoin="round" stroke-width="3.19853"/>
<path d="M306.731 317.708C301.492 323.934 317.44 321.618 311.945 314.8C309.482 311.744 308.015 316.182 306.731 317.708Z" fill="none" opacity="1" stroke="#000000" stroke-linecap="butt" stroke-linejoin="round" stroke-width="3.19853"/>
<path d="M273.766 328.606C273.692 329.062 272.983 329.78 273.403 329.941C274.276 330.278 273.791 328.446 273.766 328.606Z" fill="none" opacity="1" stroke="#000000" stroke-linecap="butt" stroke-linejoin="round" stroke-width="3.19853"/>
<path d="M297.681 206.005C301.285 209.01 305.611 211.212 309.045 214.076C312.32 216.807 313.366 221.591 316.159 224.69C320.025 228.978 323.744 232.542 326.566 238.049C329.981 244.715 329.851 252.752 332.315 259.695C334.231 265.094 334.366 270.845 336.047 276.382C338.608 284.824 341.876 292.96 344.149 301.396C345.15 305.111 345.086 309.48 346.36 313.07C349.199 321.072 356.594 333.139 355.382 342.127C355.012 344.876 345.132 353.998 342.669 354.932C341.405 355.411 340.14 356.493 338.862 356.907C338.069 357.164 336.674 356.376 336.384 357.181C335.818 358.747 340.919 357.829 341.447 357.658C343.697 356.928 361.901 347.094 358.073 343.902C356.921 342.942 358.234 351.775 356.548 353.398C354.959 354.928 351.703 354.545 349.715 355.189C343.133 357.323 336.737 362.764 329.266 361.076" fill="none" opacity="1" stroke="#000000" stroke-linecap="butt" stroke-linejoin="round" stroke-width="3.19853"/>
<path d="M333.285 361.15C327.492 364.989 315.597 364.235 308.996 363.835C292.727 362.848 276.456 360.662 260.296 358.335C257.726 357.965 255.004 356.301 252.49 355.57C249.241 354.627 245.715 355.44 242.417 355.129C239.801 354.883 237.249 353.249 234.664 352.877C232.919 352.625 226.685 351.441 227.83 354.668C229.24 358.641 235.658 358.247 239.265 358.586C244.45 359.075 249.742 360.664 255.056 360.987C259.042 361.229 264.385 359.666 268.103 361.099" fill="none" opacity="1" stroke="#000000" stroke-linecap="butt" stroke-linejoin="round" stroke-width="3.19853"/>
<path d="M292.116 208.022C303.462 209.092 301.233 223.938 316.359 225.364" fill="none" opacity="1" stroke="#000000" stroke-linecap="butt" stroke-linejoin="round" stroke-width="3.19853"/>
<path d="M64.2374 204.869C65.2244 210.725 96.7313 210.178 94.6808 203.82C94.1956 202.316 88.3753 203.121 87.2391 203.121C83.5795 203.121 63.4172 200.003 64.2374 204.869Z" fill="none" opacity="1" stroke="#000000" stroke-linecap="butt" stroke-linejoin="round" stroke-width="3.19853"/>
<path d="M365.084 249.317C391.48 212.941 442.203 212.217 483.116 212.217C494.099 212.217 506.321 213.821 517.188 212.217C529.586 210.386 542.308 206.916 554.301 202.784C578.51 194.444 601.893 184.241 625.486 174.487C633.354 171.234 640.935 166.818 647.998 163.168C650.43 161.911 652.276 159.395 655.299 159.395" fill="none" opacity="1" stroke="#000000" stroke-linecap="butt" stroke-linejoin="round" stroke-width="3.19853"/>
<path d="M366.909 248.06C359.958 258.835 360.02 268.365 357.174 280.13C356.41 283.291 357.793 286.991 357.174 290.191C356.296 294.731 355.435 302.496 356.566 307.17C357.3 310.207 358.391 312.661 358.391 315.973C358.391 326.381 354.861 337.603 359.608 347.414" fill="none" opacity="1" stroke="#000000" stroke-linecap="butt" stroke-linejoin="round" stroke-width="3.19853"/>
<path d="M357.174 346.157L357.174 348.043L358.999 351.187L360.216 351.816L360.216 351.816" fill="none" opacity="1" stroke="#000000" stroke-linecap="butt" stroke-linejoin="round" stroke-width="3.19853"/>
<path d="M360.216 352.445C375.398 362.906 394.066 359.648 411.323 361.877C428.007 364.033 442.039 358.368 458.171 355.589C480.706 351.707 503.388 347.248 521.447 331.694C542.787 313.314 555.492 288.559 569.512 264.409C580.781 244.997 595.302 229.579 610.884 213.474C616.504 207.666 625.404 205.147 631.57 200.898C648.041 189.549 667.13 180.495 681.461 165.684C683.261 163.823 697.938 152.634 697.279 150.592C696.868 149.314 691.285 150.055 689.978 148.705C687.033 145.661 691.298 149.179 689.37 146.19C687.605 143.454 681.523 146.96 679.635 147.448C671.408 149.574 665.313 152.962 657.732 156.88C655.146 158.217 648.596 161.334 647.998 164.426C647.301 168.024 656.754 174.234 660.166 175.116C662.625 175.751 666.171 175.116 668.684 175.116" fill="none" opacity="1" stroke="#000000" stroke-linecap="butt" stroke-linejoin="round" stroke-width="3.19853"/>
<path d="M653.719 157.883C644.965 148.835 624.447 143.452 627.107 162.696C628.094 169.838 633.14 173.547 636.422 179.199C638.328 182.483 639.443 186.342 641.744 189.513C645.878 195.21 654.355 199.117 659.707 203.265C670.906 211.946 675.276 199.135 677.005 190.201C677.568 187.287 681.131 181.54 679.666 178.511C678.166 175.411 671.884 173.802 669.021 172.323" fill="none" opacity="1" stroke="#000000" stroke-linecap="butt" stroke-linejoin="round" stroke-width="3.19853"/>
<path d="M663.608 203.923C663.608 222.753 662.566 242.791 659.606 261.148C657.514 274.12 659.427 287.581 656.937 300.447C655.286 308.978 657.379 332.394 651.601 338.367C638.868 351.526 620.253 343.33 604.238 346.64C596.78 348.182 588.573 347.716 580.891 348.709C561.713 351.186 540.029 354.051 520.854 350.087C508.32 347.497 494.542 351.466 482.163 351.466" fill="none" opacity="1" stroke="#000000" stroke-linecap="butt" stroke-linejoin="round" stroke-width="3.19853"/>
<path d="M517.518 336.988C538.153 336.988 557.866 333.541 578.222 333.541C594.608 333.541 612.366 333.377 628.253 330.093C631.766 329.367 649.379 326.532 652.268 328.025C657.203 330.575 654.359 340.659 653.602 344.572C649.469 365.929 630.723 360.656 613.577 363.187C603.505 364.674 591.489 363.274 581.558 361.808C577.414 361.196 573.039 362.345 568.883 361.808C549.847 359.349 526.326 359.257 507.512 362.498C496.847 364.335 485.432 361.684 474.826 363.877C460.954 366.744 445.198 361.707 431.466 365.255C415.168 369.466 393.374 365.933 377.432 363.187C371.234 362.119 364.334 362.749 359.421 357.671" fill="none" opacity="1" stroke="#000000" stroke-linecap="butt" stroke-linejoin="round" stroke-width="3.19853"/>
<path d="M652.935 201.855C650.853 212.615 653.425 223.491 652.268 234.259C650.577 249.988 648.632 266.528 644.93 281.832C643.071 289.518 644.779 298.311 642.929 305.963C641.417 312.213 641.232 324.396 642.262 330.783C642.857 334.476 643.969 339.664 642.262 343.193" fill="none" opacity="1" stroke="#000000" stroke-linecap="butt" stroke-linejoin="round" stroke-width="3.19853"/>
<path d="M646.264 156.351C640.325 156.351 634.881 168.028 639.593 172.898C646.538 180.075 658.881 183.181 666.276 190.824C667.775 192.373 669.494 198.55 671.613 199.097C673.934 199.697 672.283 193.813 674.948 195.65C676.568 196.766 677.465 201.009 678.951 202.545C683.223 206.96 688.11 211.322 692.292 215.644C692.644 216.008 693.182 216.563 692.959 217.023C692.462 218.051 690.679 216.66 689.624 217.023C688.224 217.505 683.061 222.872 683.62 224.607C685.351 229.973 693.772 217.023 692.959 217.023C690.143 217.023 684.277 227.014 687.623 228.744C691.018 230.498 699.953 221.316 697.629 217.713C695.058 213.727 688.667 223.259 687.623 224.607C687.312 225.008 686.604 225.623 686.956 225.986C690.946 230.11 697.54 215.345 694.294 217.023C692.887 217.75 692.07 219.321 690.958 220.47C690.514 220.93 690.069 221.39 689.624 221.849" fill="none" opacity="1" stroke="#000000" stroke-linecap="butt" stroke-linejoin="round" stroke-width="3.19853"/>
<path d="M357.766 321.62C365.798 321.62 375.534 319.893 382.204 325.409C388.22 330.383 387.312 343.463 395.646 345.616C411.221 349.64 428.504 344.284 443.301 351.93" fill="none" opacity="1" stroke="#000000" stroke-linecap="butt" stroke-linejoin="round" stroke-width="3.19853"/>
<path d="M470.183 348.142C467.623 337.556 456.644 336.264 448.188 332.987C440.712 330.089 434.68 323.361 427.416 320.358C420.111 317.338 403.079 314.604 398.089 307.728C395 303.47 396.406 298.551 395.646 293.836C394.041 283.887 390.678 277.988 383.426 272.367C379.898 269.632 375.925 264.921 371.207 268.578C364.501 273.776 360.79 297.782 365.097 305.203C368.647 311.317 381.085 314.085 387.092 316.569C392.69 318.883 406.053 323.536 410.309 327.935C413.8 331.543 417.294 337.498 422.528 339.301C425.992 340.495 432.235 339.301 435.969 339.301" fill="none" opacity="1" stroke="#000000" stroke-linecap="butt" stroke-linejoin="round" stroke-width="3.19853"/>
<path d="M372.429 331.724C369.596 337.58 376.287 345.656 382.204 346.879C391.18 348.734 403.723 349.667 411.531 355.719C414.055 357.676 416.055 361.846 418.862 363.297C423.517 365.702 432.353 362.034 437.191 362.034" fill="none" opacity="1" stroke="#000000" stroke-linecap="butt" stroke-linejoin="round" stroke-width="3.19853"/>
<path d="M400.533 308.991C404.239 314.736 410.374 318.681 416.418 321.62C425.424 326.001 435.619 326.203 444.523 331.724C452.967 336.96 452.293 348.142 466.517 348.142" fill="none" opacity="1" stroke="#000000" stroke-linecap="butt" stroke-linejoin="round" stroke-width="3.19853"/>
<path d="M369.985 259.738C385.936 259.738 406.8 259.899 418.862 272.367C424.718 278.419 424.895 290.784 429.86 297.625C434.67 304.254 443.908 305.83 449.41 311.517C453.085 315.315 453.375 318.356 459.186 320.358C465.346 322.48 501.787 322.541 503.175 325.409C509.615 338.721 478.62 351.689 475.071 344.353" fill="none" opacity="1" stroke="#000000" stroke-linecap="butt" stroke-linejoin="round" stroke-width="3.19853"/>
<path d="M381.593 353.825C378.92 353.322 371.73 357.705 373.651 355.719C376.531 352.742 386.685 350.667 383.426 348.142C380.63 345.974 368.607 351.447 369.985 355.719C371.447 360.253 388 354.747 387.092 351.93C385.891 348.206 365.421 349.906 369.985 356.982C371.749 359.717 379.723 358.245 382.204 358.245C383.834 358.245 387.323 359.912 387.092 358.245C386.764 355.869 383.878 354.254 381.593 353.825Z" fill="none" opacity="1" stroke="#000000" stroke-linecap="butt" stroke-linejoin="round" stroke-width="3.19853"/>
<path d="M429.86 350.667C424.905 347.858 422.285 348.142 415.196 348.142C412.345 348.142 409.494 348.142 406.643 348.142C387.103 348.142 429.201 357.663 433.525 353.193C433.576 353.141 417.64 349.615 417.64 353.193C417.64 353.419 438.38 355.5 429.86 350.667Z" fill="none" opacity="1" stroke="#000000" stroke-linecap="butt" stroke-linejoin="round" stroke-width="3.19853"/>
<path d="M376.095 353.193C386.548 351.032 397.298 355.526 407.865 356.982C417.939 358.37 429.365 356.982 439.635 356.982" fill="none" opacity="1" stroke="#000000" stroke-linecap="butt" stroke-linejoin="round" stroke-width="3.19853"/>
<path d="M675.466 158.705C675.059 157.442 675.533 154.916 674.245 154.916C672.516 154.916 669.357 157.442 670.579 158.705C673.155 161.367 680.354 153.653 680.354 153.653C680.354 153.653 670.121 157.759 671.801 161.23C673.096 163.907 682.798 156.931 682.798 154.916C682.798 151.431 666.913 157.472 666.913 161.23C666.913 162.172 668.464 162.309 669.357 162.493C672.775 163.2 690.831 155.289 690.13 152.39C688.328 144.942 666.519 158.257 664.469 162.493C664.062 163.335 662.603 164.353 663.247 165.019C667.115 169.017 688.223 157.846 686.464 152.39C684.633 146.713 659.761 161.404 657.138 165.019C656.591 165.772 655.272 166.879 655.916 167.545C659.017 170.75 679.025 158.518 682.798 156.179C683.483 155.754 690.745 150.5 690.13 149.864C685.982 145.578 659.418 163.419 660.803 166.282C662.483 169.753 668.135 164.598 671.801 163.756C678.857 162.136 685.101 158.792 691.352 154.916C692.132 154.431 693.795 153.653 693.795 153.653C693.795 153.653 688.908 156.179 686.464 157.442C681.789 159.858 677.469 164.914 675.466 158.705Z" fill="none" opacity="1" stroke="#000000" stroke-linecap="butt" stroke-linejoin="round" stroke-width="3.19853"/>
<path d="M625.841 175.132C625.841 184.852 628.991 194.671 635.536 201.436C636.213 202.135 636.633 205.194 637.96 205.194C638.821 205.194 632.92 195.743 632.507 195.173C630.374 192.234 622.276 170.098 627.659 168.243C629.793 167.508 631.615 174.223 632.507 175.759C636.475 182.595 640.384 192.915 640.384 200.81" fill="none" opacity="1" stroke="#000000" stroke-linecap="butt" stroke-linejoin="round" stroke-width="3.19853"/>
<path d="M635.839 210.204C636.45 207.715 633.724 214.855 632.507 217.093C632.15 217.749 631.669 218.326 631.295 218.972C627.18 226.06 624.629 230.9 624.629 239.639C624.629 241.61 624.134 249.659 627.659 249.659C630.897 249.659 631.305 247.143 633.113 245.275C643.173 234.877 633.011 221.73 635.839 210.204Z" fill="none" opacity="1" stroke="#000000" stroke-linecap="butt" stroke-linejoin="round" stroke-width="3.19853"/>
<path d="M633.113 216.466C630.049 214.883 627.467 219.863 625.841 222.103C620.542 229.405 623.377 237.676 627.053 245.275" fill="none" opacity="1" stroke="#000000" stroke-linecap="butt" stroke-linejoin="round" stroke-width="3.19853"/>
<path d="M637.354 212.083L636.748 210.204L636.142 204.567L636.142 203.315L636.142 203.315" fill="none" opacity="1" stroke="#000000" stroke-linecap="butt" stroke-linejoin="round" stroke-width="3.19853"/>
<path d="M373.161 254.669C373.363 254.252 373.336 253.558 373.767 253.417C382.359 250.591 390.987 247.765 399.822 245.901C405.709 244.66 412.049 263.168 414.971 267.195C418.634 272.242 424.276 268.116 428.908 269.074C438.635 271.084 440.577 276.911 444.663 285.357" fill="none" opacity="1" stroke="#000000" stroke-linecap="butt" stroke-linejoin="round" stroke-width="3.19853"/>
<path d="M451.934 301.014C457.139 302.807 464.216 300.472 468.901 302.892" fill="none" opacity="1" stroke="#000000" stroke-linecap="butt" stroke-linejoin="round" stroke-width="3.19853"/>
<path d="M489.503 304.771C489.301 305.189 488.695 306.441 488.897 306.024" fill="none" opacity="1" stroke="#000000" stroke-linecap="butt" stroke-linejoin="round" stroke-width="3.19853"/>
<path d="M430.423 315.418C428.77 314.629 427.699 312.287 425.878 312.287C424.523 312.287 426.341 316.044 427.696 316.044C430.534 316.044 429.69 313.983 430.726 312.913C431.736 311.869 435.129 315.639 433.755 316.044C432.67 316.365 431.448 315.907 430.423 315.418Z" fill="none" opacity="1" stroke="#000000" stroke-linecap="butt" stroke-linejoin="round" stroke-width="3.19853"/>
<path d="M470.718 327.317L473.142 327.317L477.384 329.822L479.202 329.822L481.019 329.822L481.019 329.822" fill="none" opacity="1" stroke="#000000" stroke-linecap="butt" stroke-linejoin="round" stroke-width="3.19853"/>
</g>
</svg>
